<?xml version="1.0" encoding="UTF-8"?><svg width="24px" height="24px" viewBox="0 0 24 24" stroke-width="1.5" fill="none" xmlns="http://www.w3.org/2000/svg" color="#000000"><path d="M3 20.4V3.6a.6.6 0 01.6-.6h16.8a.6.6 0 01.6.6v16.8a.6.6 0 01-.6.6H3.6a.6.6 0 01-.6-.6z" stroke="#000000" stroke-width="1.5"></path><path d="M7.5 8a.5.5 0 110-1 .5.5 0 010 1zM16.5 8a.5.5 0 110-1 .5.5 0 010 1zM7.5 12.5a.5.5 0 110-1 .5.5 0 010 1zM16.5 12.5a.5.5 0 110-1 .5.5 0 010 1zM7.5 17a.5.5 0 110-1 .5.5 0 010 1zM16.5 17a.5.5 0 110-1 .5.5 0 010 1z" fill="#000000" stroke="#000000" stroke-width="1.5" stroke-linecap="round" stroke-linejoin="round"></path></svg>
